<svg xmlns="http://www.w3.org/2000/svg" width="600" height="800" viewBox="0 0 600 800">
  <defs>
    <linearGradient id="g" x1="0" y1="0" x2="1" y2="1">
      <stop offset="0" stop-color="#0f172a"/>
      <stop offset="1" stop-color="#1e293b"/>
    </linearGradient>
    <linearGradient id="a" x1="0" y1="1" x2="1" y2="0">
      <stop offset="0" stop-color="#7c3aed" stop-opacity="0.95"/>
      <stop offset="0.5" stop-color="#06b6d4" stop-opacity="0.9"/>
      <stop offset="1" stop-color="#f97316" stop-opacity="0.9"/>
    </linearGradient>
  </defs>
  <rect width="600" height="800" fill="url(#g)"/>
  <circle cx="130" cy="170" r="140" fill="url(#a)" opacity="0.55"/>
  <circle cx="520" cy="700" r="220" fill="url(#a)" opacity="0.35"/>
  <rect x="70" y="240" width="460" height="14" rx="7" fill="#e2e8f0" opacity="0.9"/>
  <rect x="70" y="274" width="360" height="12" rx="6" fill="#e2e8f0" opacity="0.7"/>
  <rect x="70" y="316" width="420" height="10" rx="5" fill="#e2e8f0" opacity="0.45"/>
  <rect x="70" y="344" width="300" height="10" rx="5" fill="#e2e8f0" opacity="0.35"/>
  <g fill="#e2e8f0" opacity="0.85">
    <path d="M170 520c0-23 19-42 42-42h212c23 0 42 19 42 42v138c0 23-19 42-42 42H212c-23 0-42-19-42-42V520zm42-14c-8 0-14 6-14 14v138c0 8 6 14 14 14h212c8 0 14-6 14-14V520c0-8-6-14-14-14H212z"/>
    <path d="M248 546h204v18H248z" opacity="0.75"/>
    <path d="M248 586h168v16H248z" opacity="0.6"/>
    <path d="M248 622h190v16H248z" opacity="0.55"/>
  </g>
  <text x="70" y="470" font-family="ui-sans-serif, system-ui" font-size="34" fill="#e2e8f0" opacity="0.92" font-weight="700">Book cover</text>
  <text x="70" y="508" font-family="ui-sans-serif, system-ui" font-size="16" fill="#cbd5e1" opacity="0.9">Add a real coverUrl to replace this placeholder</text>
</svg>
